<svg xmlns="http://www.w3.org/2000/svg" viewBox="0 0 200 200"><defs><linearGradient id="g" x1="0" y1="0" x2="1" y2="1"><stop offset="0" stop-color="#3d8bff"/><stop offset="1" stop-color="#4ce0d2"/></linearGradient></defs><ellipse cx="100" cy="186" rx="52" ry="8" fill="#000" opacity=".15"/><path d="M100 22c46 0 76 30 76 72s-30 76-76 76c-12 0-22-2-30-6l-26 12 8-26C34 136 24 116 24 94c0-42 30-72 76-72z" fill="url(#g)"/><path d="M60 46q20-14 44-12" stroke="#fff" stroke-width="7" fill="none" stroke-linecap="round" opacity=".35"/><path d="M88 106q12 6 24 0" stroke="#1b1236" stroke-width="6" fill="none" stroke-linecap="round"/><rect x="52" y="62" width="40" height="22" rx="8" fill="#1b1236"/><rect x="108" y="62" width="40" height="22" rx="8" fill="#1b1236"/><path d="M92 70h16" stroke="#1b1236" stroke-width="5"/></svg>