<svg xmlns="http://www.w3.org/2000/svg" width="340" height="340" viewBox="0 0 340 340"><defs><linearGradient id="a" x1="50" y1="30" x2="300" y2="290" gradientUnits="userSpaceOnUse"><stop stop-color="#746188"/><stop offset=".4" stop-color="#57456e"/><stop offset="1" stop-color="#292c44"/></linearGradient><linearGradient id="b" x1="60" y1="210" x2="310" y2="60" gradientUnits="userSpaceOnUse"><stop stop-color="#302937"/><stop offset=".5" stop-color="#706080"/><stop offset="1" stop-color="#42445e"/></linearGradient><linearGradient id="c" x1="130" y1="180" x2="240" y2="270"><stop stop-color="#2d2738"/><stop offset="1" stop-color="#6b5a80"/></linearGradient></defs><g transform="rotate(-21 170 170)"><path d="M95 278V108c0-38 24-61 64-61h43c51 0 79 28 79 70s-32 72-80 72h-61v71c0 23-16 37-33 31-8-3-12-6-12-13Z" fill="url(#a)"/><path d="M140 94h59c25 0 40 10 40 27s-17 26-43 26h-56Z" fill="#14131b"/><path d="M95 141c0 28 18 48 45 48h56c25 0 49-7 65-22-25 10-57 10-85 2l-36-22v-53c-25 7-45 24-45 47Z" fill="url(#b)"/><path d="M140 189v72c0 18-10 32-24 32 15-10 20-33 16-65l-7-39Z" fill="url(#c)"/><path d="M95 108c0-37 24-61 64-61h43c26 0 48 9 62 24-26-13-49-14-86-14-39 0-64 17-83 51Z" fill="#d3b8e4" opacity=".08"/></g></svg>
